<?xml version="1.0" standalone="no"?><!DOCTYPE svg PUBLIC "-//W3C//DTD SVG 1.1//EN" "http://www.w3.org/Graphics/SVG/1.1/DTD/svg11.dtd"><svg class="icon" width="48px" height="48.00px" viewBox="0 0 1024 1024" version="1.1" xmlns="http://www.w3.org/2000/svg"><path fill="#5fd9da" d="M735.22 396.03c0.32-4.72 0.48-9.39 0.48-14.05 0-59.18-23.05-114.82-64.89-156.67-41.85-41.85-97.49-64.89-156.67-64.89-59.18 0-114.82 23.05-156.67 64.89-41.85 41.85-64.89 97.49-64.89 156.67 0 4.66 0.16 9.33 0.48 14.05C182 400.35 93.01 492.04 93.01 604.13c0 114.83 93.42 208.26 208.26 208.26H727c114.83 0 208.26-93.42 208.26-208.26 0-112.09-89-203.78-200.04-208.1z"  /></svg>